<?xml version="1.0" standalone="no"?>
<!DOCTYPE svg PUBLIC "-//W3C//DTD SVG 20010904//EN"
 "http://www.w3.org/TR/2001/REC-SVG-20010904/DTD/svg10.dtd">
<svg version="1.0" xmlns="http://www.w3.org/2000/svg"
 width="192.000000pt" height="192.000000pt" viewBox="0 0 192.000000 192.000000"
 preserveAspectRatio="xMidYMid meet">
<metadata>
Created by potrace 1.11, written by Peter Selinger 2001-2013
</metadata>
<g transform="translate(0.000000,192.000000) scale(0.100000,-0.100000)"
fill="#000000" stroke="none">
<path d="M1078 1873 c-8 -10 -13 -49 -13 -107 0 -101 -6 -117 -35 -109 -21 6
-23 15 -21 115 1 66 -17 95 -50 78 -16 -9 -19 -22 -19 -90 0 -44 -2 -80 -5
-80 -5 0 -66 12 -218 42 -34 6 -62 7 -67 2 -4 -5 -29 -65 -54 -133 -136 -364
-327 -747 -475 -952 -46 -62 -39 -83 28 -95 7 -2 35 -8 62 -14 l49 -12 -50
-95 c-27 -52 -50 -100 -50 -108 0 -25 33 -33 124 -32 59 1 90 -2 93 -10 2 -6
-12 -54 -31 -107 -34 -90 -38 -125 -12 -127 19 -2 84 6 128 15 12 3 41 8 63
11 22 3 121 19 220 36 99 17 189 32 200 33 70 12 113 19 130 23 26 5 47 9 115
18 30 4 58 9 61 11 4 2 27 6 50 9 24 3 78 12 120 20 42 8 98 17 125 20 27 4
58 9 68 12 11 3 34 7 50 9 17 2 38 5 47 7 21 4 50 27 45 36 -2 3 -7 56 -11
116 -4 61 -9 128 -11 150 -1 22 -3 57 -3 78 -1 39 -17 53 -18 15 -1 -31 -11
-162 -19 -251 -4 -40 -11 -75 -17 -78 -5 -4 -35 -10 -66 -14 -31 -4 -63 -8
-71 -10 -82 -16 -140 -27 -165 -29 -16 -2 -57 -9 -90 -15 -33 -6 -73 -13 -90
-16 -43 -7 -175 -8 -210 0 -156 33 -233 79 -300 181 -62 92 -96 280 -72 389 5
22 11 50 13 63 2 12 6 34 9 50 52 269 69 412 69 589 1 89 5 133 12 133 10 0
280 -53 330 -65 17 -4 20 -12 19 -43 -2 -53 10 -82 34 -82 26 0 31 9 33 60 1
22 4 43 7 45 11 6 175 -51 241 -84 58 -29 157 -96 185 -126 41 -42 87 -109
109 -160 14 -33 26 -58 26 -55 1 3 4 57 6 120 3 63 6 142 8 175 2 33 -1 67 -5
76 -5 9 -28 20 -51 24 -59 11 -57 10 -283 56 -110 22 -208 41 -218 42 -22 2
-26 23 -24 107 2 51 5 65 17 64 8 -1 73 -14 144 -28 71 -15 135 -25 142 -22
20 8 17 54 -3 60 -18 6 -91 22 -148 32 -16 3 -67 14 -112 24 -73 16 -84 16
-95 3z m-563 -730 c-51 -159 -119 -336 -183 -476 -41 -87 -41 -87 -69 -76 -15
6 -29 10 -30 10 -16 -5 -43 1 -43 9 0 5 24 47 54 92 29 46 64 103 77 128 13
25 27 47 30 50 6 6 147 293 180 367 12 29 24 51 27 49 2 -3 -17 -71 -43 -153z
m92 15 c-4 -29 -13 -89 -22 -133 -9 -44 -18 -91 -20 -106 -10 -68 -85 -349
-131 -490 l-25 -76 -79 -1 -80 -1 56 107 c31 59 85 175 120 257 36 83 69 159
74 170 14 32 78 217 86 250 11 40 11 42 13 60 0 8 4 15 7 15 4 0 4 -24 1 -52z"/>
<path d="M1096 1172 c-88 -30 -173 -129 -192 -226 -22 -105 14 -223 91 -302
21 -22 101 -63 134 -69 82 -14 142 -7 205 26 78 40 132 108 160 202 18 59 5
70 -19 16 -48 -106 -184 -155 -289 -104 -61 29 -91 58 -117 112 -58 119 -7
273 106 324 22 10 52 19 68 19 15 0 27 4 27 8 0 16 -124 11 -174 -6z"/>
</g>
</svg>
